<svg width="16" height="16" viewBox="0 0 16 16" fill="none" xmlns="http://www.w3.org/2000/svg">
<g id="icons">
<path id="Vector" d="M14 1.33333L13.3333 1.99999M2 1.33333L2.66667 1.99999M14 10.6667L13.3333 10M2 10.6667L2.66667 10M6 12H10M6.66667 14H9.33333M8 1.99999C5.33333 1.99999 3.968 3.3 4 5.33333C4.01533 6.32466 4.33333 7 5 7.66666C5.66667 8.33333 6 8.66666 6 10H10C10 8.66666 10.3333 8.33333 11 7.66666C11.6667 7 11.9847 6.32466 12 5.33333C12.032 3.3 10.6667 1.99999 8 1.99999Z" stroke="#09090B" stroke-linecap="round" stroke-linejoin="round"/>
</g>
</svg>
