<svg width="28" height="16" viewBox="0 0 28 16" fill="none" xmlns="http://www.w3.org/2000/svg">
<g id="Bear">
<path id="Path 3582" d="M20.0079 8.05964C20.3225 10.5098 20.6145 12.8102 20.9176 15.1081C20.9535 15.3834 20.896 15.4805 20.5854 15.4959C18.7148 15.5882 18.7158 15.5955 18.0396 13.905C17.7581 13.2015 17.4837 12.4953 17.1839 11.7988C17.1179 11.6844 17.0935 11.5514 17.1148 11.4217C17.136 11.292 17.2017 11.1732 17.3009 11.0845C18.1858 10.1251 19.0477 9.1397 20.0079 8.05964Z" fill="#27272A"/>
<path id="Path 3583" d="M9.01295 10.1132C9.28085 11.4618 9.54515 12.7295 9.77786 14.0028C9.84968 14.3969 10.1729 14.8977 9.89637 15.1642C9.65792 15.3932 9.12859 15.0692 8.72171 15.0839C7.64078 15.1239 7.13766 14.628 6.96205 13.5869C6.85899 12.9757 6.81337 12.5524 7.32942 12.079C7.93179 11.4584 8.49406 10.8019 9.01295 10.1132Z" fill="#27272A"/>
<path id="Path 3584" d="M12.0651 12.5731C12.0651 11.8157 12.0533 11.0582 12.0709 10.3011C12.0777 10.0038 11.993 9.90346 11.6694 9.89294C9.46205 9.82164 7.25517 9.73514 5.04877 9.63344C4.70223 9.61766 4.56541 9.71375 4.49179 10.0483C4.15135 11.5975 3.76494 13.1377 3.4324 14.6887C3.33903 15.1242 3.16881 15.2848 2.70232 15.2354C2.18472 15.183 1.66364 15.1713 1.14412 15.2003C0.752686 15.2196 0.677274 15.0601 0.683019 14.7273C0.716776 12.4009 0.766695 10.0746 0.743712 7.74895C0.739472 7.0333 0.984228 6.33746 1.43788 5.77538C2.65887 4.11847 3.83497 2.43175 5.01789 0.749238C5.08169 0.634029 5.18211 0.542181 5.30401 0.487536C5.4259 0.43289 5.56268 0.418401 5.69374 0.446254C10.1044 0.907034 14.5167 1.35344 18.9307 1.78546C19.2068 1.81778 19.4704 1.91619 19.6981 2.07196C22.3247 3.73869 24.9466 5.41138 27.5864 7.05778C27.9814 7.30325 27.9922 7.44351 27.6126 7.66549C27.5309 7.70858 27.4579 7.76586 27.3972 7.83451C26.6369 8.79359 25.7452 8.75046 24.6679 8.32545C23.3657 7.81312 21.9925 7.47332 20.6573 7.03779C20.5302 6.98749 20.3924 6.96844 20.2561 6.98232C20.1197 6.9962 19.9889 7.04258 19.8752 7.11739C18.647 7.86221 17.4132 8.59792 16.1738 9.3245C16.0621 9.38289 15.9668 9.46701 15.896 9.56956C15.8252 9.6721 15.7811 9.78997 15.7676 9.91293C15.4958 11.512 15.1848 13.104 14.9348 14.7073C14.863 15.1667 14.6953 15.3122 14.2277 15.2803C13.6339 15.246 13.0386 15.245 12.4447 15.2775C12.0924 15.2929 12.0023 15.1723 12.0138 14.8444C12.0368 14.0873 12.021 13.3291 12.021 12.5717L12.0651 12.5731Z" fill="#27272A"/>
</g>
</svg>
